# xmcd
#
# Track frame offsets:
# 150
# 17579
# 31093
# 44227
# 58117
# 68500
# 82559
# 103389
# 116645
# 130140
# 143149
#
# Disc length: 2133 seconds
#
#
# Revision: 0
# Processed by: cddbd v1.4PL0 Copyright (c) Steve Scherf et al.
# Submitted via: FreeRIP 2.00 
#
DISCID=9008530b
DTITLE=Various Artist - Official PRCA Cowboy Up #2
DYEAR=1900
DGENRE=Country
TTITLE0=Joe Diffie~Honky Tonk Attitude
TTITLE1=Brooks And Dunn~Hard Workin' Man
TTITLE2=Terri Clark~Hold Your Horses
TTITLE3=Vince Gill~What The Cowgirls Do
TTITLE4=Rhett Akins~Every Cowboy's Dream
TTITLE5=John Michael Montgomery~Cowboy Love
TTITLE6=Matraca Berg~Back In The Saddle
TTITLE7=Chris LeDuex~Take Me To The Rodeo
TTITLE8=Deryl Dodd~13 MWZ
TTITLE9=Toby Keith~She Ran Away With The Rodeo Clown
TTITLE10=Mark Chesnutt~Blame It On Texas
EXTD=
EXTT0=
EXTT1=
EXTT2=
EXTT3=
EXTT4=
EXTT5=
EXTT6=
EXTT7=
EXTT8=
EXTT9=
EXTT10=
PLAYORDER=
